<svg width="1060" height="1278" viewBox="0 0 1060 1278" fill="none" xmlns="http://www.w3.org/2000/svg">
<rect width="1060" height="1278" fill="white"/>
<path d="M918.292 601.219C919.106 601.627 919.79 602.253 920.268 603.029C920.747 603.805 921 604.699 921 605.611C921 606.523 920.747 607.417 920.268 608.193C919.79 608.968 919.106 609.595 918.292 610.003L907.203 615.556L861.504 638.448C857.708 640.348 853.46 636.842 854.595 632.743L857.46 622.387C857.643 621.725 857.963 621.109 858.399 620.578C858.835 620.048 859.377 619.615 859.991 619.308L878.567 610.003C879.381 609.595 880.065 608.968 880.543 608.193C881.021 607.417 881.275 606.523 881.275 605.611C881.275 604.699 881.021 603.805 880.543 603.029C880.065 602.253 879.381 601.627 878.567 601.219L854.368 589.095C853.722 588.771 853.012 588.594 852.289 588.578C851.567 588.562 850.85 588.706 850.19 589C849.529 589.294 848.942 589.732 848.47 590.28C847.999 590.829 847.654 591.476 847.461 592.174L835.148 636.678L831.904 648.403C831.711 649.101 831.366 649.748 830.894 650.296C830.422 650.845 829.835 651.282 829.174 651.577C828.514 651.871 827.797 652.015 827.074 651.999C826.351 651.982 825.641 651.806 824.995 651.482L814.137 646.041L760.809 619.332L749.708 613.772C748.894 613.364 748.21 612.737 747.732 611.961C747.253 611.185 747 610.291 747 609.379C747 608.467 747.253 607.573 747.732 606.798C748.21 606.022 748.894 605.395 749.708 604.987L760.797 599.434L806.501 576.556C810.294 574.657 814.542 578.163 813.408 582.262L810.542 592.617C810.359 593.279 810.039 593.896 809.603 594.426C809.167 594.957 808.625 595.389 808.012 595.696L789.438 604.992C788.624 605.4 787.94 606.027 787.462 606.802C786.983 607.578 786.73 608.472 786.73 609.384C786.73 610.296 786.983 611.19 787.462 611.966C787.94 612.742 788.624 613.368 789.438 613.776L813.651 625.905C814.297 626.229 815.007 626.405 815.729 626.422C816.452 626.438 817.169 626.294 817.829 626C818.489 625.705 819.077 625.268 819.548 624.719C820.02 624.171 820.365 623.524 820.558 622.826L832.866 578.324L836.11 566.599C836.303 565.901 836.648 565.254 837.12 564.705C837.591 564.156 838.179 563.718 838.839 563.424C839.5 563.129 840.217 562.985 840.94 563.001C841.662 563.017 842.372 563.194 843.019 563.518L853.865 568.954L853.881 568.965L907.191 595.659L918.292 601.219Z" fill="#0070F3"/>
<path d="M211.128 642.152C205.944 642.152 201.112 641.32 196.632 639.656C192.216 637.928 188.376 635.496 185.112 632.36C181.848 629.224 179.288 625.544 177.432 621.32C175.64 617.096 174.744 612.456 174.744 607.4C174.744 602.344 175.64 597.704 177.432 593.48C179.288 589.256 181.848 585.576 185.112 582.44C188.44 579.304 192.312 576.904 196.728 575.24C201.144 573.512 205.976 572.648 211.224 572.648C217.048 572.648 222.296 573.672 226.968 575.72C231.704 577.704 235.672 580.648 238.872 584.552L228.888 593.768C226.584 591.144 224.024 589.192 221.208 587.912C218.392 586.568 215.32 585.896 211.992 585.896C208.856 585.896 205.976 586.408 203.352 587.432C200.728 588.456 198.456 589.928 196.536 591.848C194.616 593.768 193.112 596.04 192.024 598.664C191 601.288 190.488 604.2 190.488 607.4C190.488 610.6 191 613.512 192.024 616.136C193.112 618.76 194.616 621.032 196.536 622.952C198.456 624.872 200.728 626.344 203.352 627.368C205.976 628.392 208.856 628.904 211.992 628.904C215.32 628.904 218.392 628.264 221.208 626.984C224.024 625.64 226.584 623.624 228.888 620.936L238.872 630.152C235.672 634.056 231.704 637.032 226.968 639.08C222.296 641.128 217.016 642.152 211.128 642.152ZM271.113 641.768C265.609 641.768 260.713 640.616 256.425 638.312C252.201 636.008 248.841 632.872 246.345 628.904C243.913 624.872 242.697 620.296 242.697 615.176C242.697 609.992 243.913 605.416 246.345 601.448C248.841 597.416 252.201 594.28 256.425 592.04C260.713 589.736 265.609 588.584 271.113 588.584C276.553 588.584 281.417 589.736 285.705 592.04C289.993 594.28 293.353 597.384 295.785 601.352C298.217 605.32 299.433 609.928 299.433 615.176C299.433 620.296 298.217 624.872 295.785 628.904C293.353 632.872 289.993 636.008 285.705 638.312C281.417 640.616 276.553 641.768 271.113 641.768ZM271.113 629.48C273.609 629.48 275.849 628.904 277.833 627.752C279.817 626.6 281.385 624.968 282.537 622.856C283.689 620.68 284.265 618.12 284.265 615.176C284.265 612.168 283.689 609.608 282.537 607.496C281.385 605.384 279.817 603.752 277.833 602.6C275.849 601.448 273.609 600.872 271.113 600.872C268.617 600.872 266.377 601.448 264.393 602.6C262.409 603.752 260.809 605.384 259.593 607.496C258.441 609.608 257.865 612.168 257.865 615.176C257.865 618.12 258.441 620.68 259.593 622.856C260.809 624.968 262.409 626.6 264.393 627.752C266.377 628.904 268.617 629.48 271.113 629.48ZM331.619 641.768C326.755 641.768 322.371 640.68 318.467 638.504C314.563 636.264 311.459 633.16 309.155 629.192C306.915 625.224 305.795 620.552 305.795 615.176C305.795 609.736 306.915 605.032 309.155 601.064C311.459 597.096 314.563 594.024 318.467 591.848C322.371 589.672 326.755 588.584 331.619 588.584C335.971 588.584 339.779 589.544 343.043 591.464C346.307 593.384 348.835 596.296 350.627 600.2C352.419 604.104 353.315 609.096 353.315 615.176C353.315 621.192 352.451 626.184 350.723 630.152C348.995 634.056 346.499 636.968 343.235 638.888C340.035 640.808 336.163 641.768 331.619 641.768ZM334.211 629.48C336.643 629.48 338.851 628.904 340.835 627.752C342.819 626.6 344.387 624.968 345.539 622.856C346.755 620.68 347.363 618.12 347.363 615.176C347.363 612.168 346.755 609.608 345.539 607.496C344.387 605.384 342.819 603.752 340.835 602.6C338.851 601.448 336.643 600.872 334.211 600.872C331.715 600.872 329.475 601.448 327.491 602.6C325.507 603.752 323.907 605.384 322.691 607.496C321.539 609.608 320.963 612.168 320.963 615.176C320.963 618.12 321.539 620.68 322.691 622.856C323.907 624.968 325.507 626.6 327.491 627.752C329.475 628.904 331.715 629.48 334.211 629.48ZM347.747 641V630.44L348.035 615.08L347.075 599.816V569.768H362.051V641H347.747ZM401.544 641.768C395.656 641.768 390.472 640.616 385.992 638.312C381.576 636.008 378.152 632.872 375.72 628.904C373.288 624.872 372.072 620.296 372.072 615.176C372.072 609.992 373.256 605.416 375.624 601.448C378.056 597.416 381.352 594.28 385.512 592.04C389.672 589.736 394.376 588.584 399.624 588.584C404.68 588.584 409.224 589.672 413.256 591.848C417.352 593.96 420.584 597.032 422.952 601.064C425.32 605.032 426.504 609.8 426.504 615.368C426.504 615.944 426.472 616.616 426.408 617.384C426.344 618.088 426.28 618.76 426.216 619.4H384.264V610.664H418.344L412.584 613.256C412.584 610.568 412.04 608.232 410.952 606.248C409.864 604.264 408.36 602.728 406.44 601.64C404.52 600.488 402.28 599.912 399.72 599.912C397.16 599.912 394.888 600.488 392.904 601.64C390.984 602.728 389.48 604.296 388.392 606.344C387.304 608.328 386.76 610.696 386.76 613.448V615.752C386.76 618.568 387.368 621.064 388.584 623.24C389.864 625.352 391.624 626.984 393.864 628.136C396.168 629.224 398.856 629.768 401.928 629.768C404.68 629.768 407.08 629.352 409.128 628.52C411.24 627.688 413.16 626.44 414.888 624.776L422.856 633.416C420.488 636.104 417.512 638.184 413.928 639.656C410.344 641.064 406.216 641.768 401.544 641.768Z" fill="black"/>
<path d="M459.611 642.152C454.235 642.152 449.083 641.448 444.155 640.04C439.227 638.568 435.259 636.68 432.251 634.376L437.531 622.664C440.411 624.712 443.803 626.408 447.707 627.752C451.675 629.032 455.675 629.672 459.707 629.672C462.779 629.672 465.243 629.384 467.099 628.808C469.019 628.168 470.427 627.304 471.323 626.216C472.219 625.128 472.667 623.88 472.667 622.472C472.667 620.68 471.963 619.272 470.555 618.248C469.147 617.16 467.291 616.296 464.987 615.656C462.683 614.952 460.123 614.312 457.307 613.736C454.555 613.096 451.771 612.328 448.955 611.432C446.203 610.536 443.675 609.384 441.371 607.976C439.067 606.568 437.179 604.712 435.707 602.408C434.299 600.104 433.595 597.16 433.595 593.576C433.595 589.736 434.619 586.248 436.667 583.112C438.779 579.912 441.915 577.384 446.075 575.528C450.299 573.608 455.579 572.648 461.915 572.648C466.139 572.648 470.299 573.16 474.395 574.184C478.491 575.144 482.107 576.616 485.243 578.6L480.443 590.408C477.307 588.616 474.171 587.304 471.035 586.472C467.899 585.576 464.827 585.128 461.819 585.128C458.811 585.128 456.347 585.48 454.427 586.184C452.507 586.888 451.131 587.816 450.299 588.968C449.467 590.056 449.051 591.336 449.051 592.808C449.051 594.536 449.755 595.944 451.163 597.032C452.571 598.056 454.427 598.888 456.731 599.528C459.035 600.168 461.563 600.808 464.315 601.448C467.131 602.088 469.915 602.824 472.667 603.656C475.483 604.488 478.043 605.608 480.347 607.016C482.651 608.424 484.507 610.28 485.915 612.584C487.387 614.888 488.123 617.8 488.123 621.32C488.123 625.096 487.067 628.552 484.955 631.688C482.843 634.824 479.675 637.352 475.451 639.272C471.291 641.192 466.011 642.152 459.611 642.152ZM518.813 641.768C512.733 641.768 507.997 640.232 504.605 637.16C501.213 634.024 499.517 629.384 499.517 623.24V577.928H514.493V623.048C514.493 625.224 515.069 626.92 516.221 628.136C517.373 629.288 518.941 629.864 520.925 629.864C523.293 629.864 525.309 629.224 526.973 627.944L531.005 638.504C529.469 639.592 527.613 640.424 525.437 641C523.325 641.512 521.117 641.768 518.813 641.768ZM491.549 602.024V590.504H527.357V602.024H491.549ZM571.092 641V630.92L570.132 628.712V610.664C570.132 607.464 569.14 604.968 567.156 603.176C565.236 601.384 562.26 600.488 558.228 600.488C555.476 600.488 552.756 600.936 550.068 601.832C547.444 602.664 545.204 603.816 543.348 605.288L537.972 594.824C540.788 592.84 544.18 591.304 548.148 590.216C552.116 589.128 556.148 588.584 560.244 588.584C568.116 588.584 574.228 590.44 578.58 594.152C582.932 597.864 585.108 603.656 585.108 611.528V641H571.092ZM555.348 641.768C551.316 641.768 547.86 641.096 544.98 639.752C542.1 638.344 539.892 636.456 538.356 634.088C536.82 631.72 536.052 629.064 536.052 626.12C536.052 623.048 536.788 620.36 538.26 618.056C539.796 615.752 542.196 613.96 545.46 612.68C548.724 611.336 552.98 610.664 558.228 610.664H571.956V619.4H559.86C556.34 619.4 553.908 619.976 552.564 621.128C551.284 622.28 550.644 623.72 550.644 625.448C550.644 627.368 551.38 628.904 552.852 630.056C554.388 631.144 556.468 631.688 559.092 631.688C561.588 631.688 563.828 631.112 565.812 629.96C567.796 628.744 569.236 626.984 570.132 624.68L572.436 631.592C571.348 634.92 569.364 637.448 566.484 639.176C563.604 640.904 559.892 641.768 555.348 641.768ZM611.046 630.44L611.43 612.2L635.526 589.352H653.382L630.246 612.872L622.47 619.208L611.046 630.44ZM598.662 641V569.768H613.638V641H598.662ZM637.158 641L619.686 619.304L629.094 607.688L655.302 641H637.158ZM685.513 641.768C679.625 641.768 674.441 640.616 669.961 638.312C665.545 636.008 662.121 632.872 659.689 628.904C657.257 624.872 656.041 620.296 656.041 615.176C656.041 609.992 657.225 605.416 659.593 601.448C662.025 597.416 665.321 594.28 669.481 592.04C673.641 589.736 678.345 588.584 683.593 588.584C688.649 588.584 693.193 589.672 697.225 591.848C701.321 593.96 704.553 597.032 706.921 601.064C709.289 605.032 710.473 609.8 710.473 615.368C710.473 615.944 710.441 616.616 710.377 617.384C710.313 618.088 710.249 618.76 710.185 619.4H668.233V610.664H702.313L696.553 613.256C696.553 610.568 696.009 608.232 694.921 606.248C693.833 604.264 692.329 602.728 690.409 601.64C688.489 600.488 686.249 599.912 683.689 599.912C681.129 599.912 678.857 600.488 676.873 601.64C674.953 602.728 673.449 604.296 672.361 606.344C671.273 608.328 670.729 610.696 670.729 613.448V615.752C670.729 618.568 671.337 621.064 672.553 623.24C673.833 625.352 675.593 626.984 677.833 628.136C680.137 629.224 682.825 629.768 685.897 629.768C688.649 629.768 691.049 629.352 693.097 628.52C695.209 627.688 697.129 626.44 698.857 624.776L706.825 633.416C704.457 636.104 701.481 638.184 697.897 639.656C694.313 641.064 690.185 641.768 685.513 641.768Z" fill="#1870EA"/>
</svg>
